<svg version="1.0" xmlns="http://www.w3.org/2000/svg"
 width="199.000000pt" height="253.000000pt" viewBox="0 0 199.000000 253.000000"
 preserveAspectRatio="xMidYMid meet">
<metadata>
Created by potrace 1.15, written by Peter Selinger 2001-2017
</metadata>
<g transform="translate(0.000000,253.000000) scale(0.100000,-0.100000)"
fill="#000000" stroke="none">
<path d="M142 2397 l-22 -23 0 -935 0 -934 573 -154 c314 -84 592 -159 617
-166 25 -7 134 -37 243 -66 l198 -52 29 28 30 29 0 940 0 940 -32 -31 c-32
-31 -34 -31 -80 -21 -27 6 -48 15 -48 19 0 4 14 19 31 33 17 14 24 26 17 26
-8 0 -27 -13 -42 -29 -25 -26 -31 -28 -64 -19 -67 17 -67 16 -46 39 11 12 28
25 39 30 19 8 19 8 0 8 -10 1 -33 -12 -50 -27 -30 -29 -30 -29 -79 -15 l-48
15 27 28 c22 23 24 28 10 34 -9 3 -14 2 -11 -3 3 -4 -5 -18 -19 -31 -22 -21
-27 -22 -75 -10 l-51 12 25 27 c30 31 32 41 10 41 -8 0 -13 -4 -10 -9 3 -4 -5
-18 -19 -31 l-24 -22 -105 28 -106 28 32 33 c18 18 26 33 20 33 -7 0 -25 -14
-40 -31 -27 -31 -28 -31 -72 -18 -25 7 -47 14 -49 16 -3 2 8 17 24 33 16 17
23 30 16 30 -7 0 -24 -13 -38 -30 -26 -31 -38 -32 -102 -8 l-24 9 28 29 c37
38 21 39 -20 1 l-30 -29 -50 15 -50 15 33 29 c18 16 26 29 19 29 -7 0 -24 -11
-37 -25 -26 -28 -38 -30 -94 -14 l-38 11 23 24 c12 13 29 24 37 24 24 0 7 10
-24 16 -18 3 -24 1 -16 -4 9 -6 6 -14 -12 -31 -23 -22 -28 -23 -76 -11 l-51
12 26 28 c17 18 33 26 44 23 9 -4 13 -3 9 1 -8 10 -59 15 -53 6 2 -4 -6 -17
-19 -29 -21 -20 -27 -21 -70 -10 -25 6 -46 15 -46 19 0 5 11 17 25 28 29 23
32 32 10 32 -8 0 -14 -3 -12 -8 1 -4 -7 -18 -19 -30 -20 -21 -24 -22 -73 -10
l-51 12 27 28 c14 15 24 31 20 34 -3 3 -18 -8 -34 -25 -27 -30 -29 -30 -76
-19 l-47 11 22 24 c12 13 19 23 16 23 -2 0 -14 -10 -26 -23z m463 -497 c88
-23 331 -88 539 -144 l379 -102 -2 -114 c0 -62 -3 -115 -5 -118 -3 -2 -28 1
-56 8 l-51 12 25 27 c30 31 32 41 10 41 -8 0 -13 -4 -10 -9 3 -4 -5 -18 -18
-30 -21 -20 -26 -21 -75 -9 l-51 12 32 33 c40 41 25 44 -17 3 -29 -28 -32 -29
-75 -18 -25 6 -47 13 -49 15 -3 2 8 17 24 33 16 17 24 30 19 30 -6 0 -23 -13
-38 -29 -26 -27 -30 -28 -69 -18 -59 14 -62 21 -27 51 17 14 25 26 18 26 -8 0
-25 -11 -38 -25 -26 -28 -38 -30 -93 -14 -38 10 -39 11 -20 31 10 11 27 24 38
29 20 8 20 8 0 8 -12 1 -32 -12 -45 -27 l-24 -28 -81 22 c-44 12 -93 25 -109
29 l-29 6 27 28 c30 32 32 41 9 41 -9 0 -13 -3 -10 -7 9 -8 -32 -53 -47 -53
-6 0 -28 5 -49 11 -39 10 -39 11 -20 32 l18 22 -22 -19 c-21 -18 -23 -27 -23
-136 l0 -117 88 -22 c48 -12 257 -68 465 -124 l379 -102 -1 -349 c0 -192 -3
-351 -5 -354 -3 -2 -28 2 -56 9 l-50 13 32 33 c17 18 26 33 20 33 -7 0 -25
-14 -40 -31 -27 -31 -28 -31 -72 -18 -25 7 -47 14 -49 16 -3 2 8 17 24 33 16
17 24 30 19 30 -6 0 -23 -13 -39 -30 -29 -30 -41 -31 -104 -8 l-24 9 28 29
c37 38 21 39 -20 1 l-30 -29 -50 15 -50 15 33 29 c18 16 26 29 19 29 -7 0 -24
-11 -37 -25 -26 -28 -38 -30 -94 -14 l-38 11 23 24 c12 13 29 24 37 24 22 0
12 6 -23 14 -17 4 -25 3 -17 -2 9 -6 6 -14 -13 -32 l-24 -23 -106 28 -106 28
26 27 c29 30 31 40 9 40 -8 0 -13 -4 -10 -9 3 -4 -5 -18 -18 -30 -21 -20 -26
-21 -75 -9 l-51 12 27 28 c14 15 24 31 20 34 -3 3 -18 -8 -34 -25 -28 -30 -29
-30 -81 -19 l-53 11 32 33 c18 19 28 34 23 34 -6 0 -23 -13 -38 -29 -26 -27
-30 -28 -69 -18 -58 14 -62 21 -30 48 27 23 28 27 25 108 -3 82 -3 83 20 78
13 -2 82 -20 153 -40 72 -19 258 -69 414 -111 l284 -76 29 27 c28 26 28 28 28
147 l0 120 -33 -32 c-31 -30 -35 -31 -72 -21 -58 16 -59 18 -29 50 15 16 23
29 18 29 -6 0 -23 -13 -38 -29 -26 -27 -30 -28 -69 -18 -59 14 -62 21 -27 51
17 14 25 26 18 26 -8 0 -25 -11 -38 -25 -26 -28 -38 -30 -93 -14 -38 10 -39
11 -20 31 10 11 27 24 38 29 19 7 19 8 -2 8 -12 1 -32 -11 -44 -27 l-23 -28
-108 30 -108 30 25 26 c29 30 31 40 9 40 -8 0 -13 -4 -10 -9 3 -4 -5 -18 -18
-30 -21 -20 -27 -21 -75 -10 l-53 11 28 29 c15 16 25 32 21 35 -3 3 -18 -8
-34 -26 l-28 -31 -53 12 -52 13 32 33 c39 41 26 44 -17 4 -29 -28 -32 -29 -77
-18 -27 6 -48 15 -48 18 0 4 12 18 28 31 l27 23 -3 319 c-2 300 -1 318 15 314
10 -3 90 -24 178 -48z"/>
</g>
</svg>

